<?xml version="1.0" standalone="no"?>
<!DOCTYPE svg PUBLIC "-//W3C//DTD SVG 1.1//EN"
 "http://www.w3.org/Graphics/SVG/1.1/DTD/svg11.dtd">
<!-- Created with svg_stack (http://github.com/astraw/svg_stack) -->
<svg xmlns:sodipodi="http://sodipodi.sourceforge.net/DTD/sodipodi-0.dtd" xmlns="http://www.w3.org/2000/svg" version="1.1" width="542.0" height="522.0">
  <defs/>
  <g id="id0:id0" transform="matrix(1.25,0,0,1.25,0.0,0.0)"><g transform="translate(0.000000,417.600000) scale(0.040000,-0.040000)" fill="#000000" stroke="none">
<path d="M0 5220 l0 -5220 5420 0 5420 0 0 5220 0 5220 -5420 0 -5420 0 0 -5220z"/>
</g>
</g>
  <g id="id1:id1" transform="matrix(1.25,0,0,1.25,0.0,0.0)"><g transform="translate(0.000000,417.600000) scale(0.040000,-0.040000)" fill="#000000" stroke="none">
<path d="M0 5220 l0 -5220 5420 0 5420 0 0 5220 0 5220 -5420 0 -5420 0 0 -5220z"/>
</g>
</g>
  <g id="id2:id2" transform="matrix(1.25,0,0,1.25,0.0,0.0)"><g transform="translate(0.000000,417.600000) scale(0.040000,-0.040000)" fill="#000000" stroke="none">
<path d="M0 5220 l0 -5220 5420 0 5420 0 0 5220 0 5220 -5420 0 -5420 0 0 -5220z"/>
</g>
</g>
  <g id="id3:id3" transform="matrix(1.25,0,0,1.25,0.0,0.0)"><g transform="translate(0.000000,417.600000) scale(0.040000,-0.040000)" fill="#000000" stroke="none">
<path d="M0 5220 l0 -5220 5420 0 5420 0 0 5220 0 5220 -5420 0 -5420 0 0 -5220z"/>
</g>
</g>
  <g id="id4:id4" transform="matrix(1.25,0,0,1.25,0.0,0.0)"><g transform="translate(0.000000,417.600000) scale(0.040000,-0.040000)" fill="#000000" stroke="none">
<path d="M0 5220 l0 -5220 5420 0 5420 0 0 5220 0 5220 -5420 0 -5420 0 0 -5220z"/>
</g>
</g>
  <g id="id5:id5" transform="matrix(1.25,0,0,1.25,0.0,0.0)"><g transform="translate(0.000000,417.600000) scale(0.040000,-0.040000)" fill="#000000" stroke="none">
<path d="M0 5220 l0 -5220 5420 0 5420 0 0 5220 0 5220 -5420 0 -5420 0 0 -5220z"/>
</g>
</g>
  <g id="id6:id6" transform="matrix(1.25,0,0,1.25,0.0,0.0)"><g transform="translate(0.000000,417.600000) scale(0.040000,-0.040000)" fill="#000000" stroke="none">
<path d="M0 5220 l0 -5220 5420 0 5420 0 0 5220 0 5220 -5420 0 -5420 0 0 -5220z"/>
</g>
</g>
  <g id="id7:id7" transform="matrix(1.25,0,0,1.25,0.0,0.0)"><g transform="translate(0.000000,417.600000) scale(0.040000,-0.040000)" fill="#000000" stroke="none">
<path d="M0 5220 l0 -5220 5420 0 5420 0 0 5220 0 5220 -5420 0 -5420 0 0 -5220z"/>
</g>
</g>
  <g id="id8:id8" transform="matrix(1.25,0,0,1.25,0.0,0.0)"><g transform="translate(0.000000,417.600000) scale(0.040000,-0.040000)" fill="#000000" stroke="none">
<path d="M0 5220 l0 -5220 5420 0 5420 0 0 5220 0 5220 -5420 0 -5420 0 0 -5220z"/>
</g>
</g>
  <g id="id9:id9" transform="matrix(1.25,0,0,1.25,0.0,0.0)"><g transform="translate(0.000000,417.600000) scale(0.040000,-0.040000)" fill="#000000" stroke="none">
<path d="M0 5220 l0 -5220 5420 0 5420 0 0 5220 0 5220 -5420 0 -5420 0 0 -5220z"/>
</g>
</g>
  <g id="id10:id10" transform="matrix(1.25,0,0,1.25,0.0,0.0)"><g transform="translate(0.000000,417.600000) scale(0.040000,-0.040000)" fill="#000000" stroke="none">
<path d="M0 5220 l0 -5220 5420 0 5420 0 0 5220 0 5220 -5420 0 -5420 0 0 -5220z"/>
</g>
</g>
  <g id="id11:id11" transform="matrix(1.25,0,0,1.25,0.0,0.0)"><g transform="translate(0.000000,417.600000) scale(0.040000,-0.040000)" fill="#000000" stroke="none">
<path d="M0 5220 l0 -5220 5420 0 5420 0 0 5220 0 5220 -5420 0 -5420 0 0 -5220z"/>
</g>
</g>
  <g id="id12:id12" transform="matrix(1.25,0,0,1.25,0.0,0.0)"><g transform="translate(0.000000,417.600000) scale(0.040000,-0.040000)" fill="#000000" stroke="none">
<path d="M0 5220 l0 -5220 5420 0 5420 0 0 5220 0 5220 -5420 0 -5420 0 0 -5220z"/>
</g>
</g>
  <g id="id13:id13" transform="matrix(1.25,0,0,1.25,0.0,0.0)"><g transform="translate(0.000000,417.600000) scale(0.040000,-0.040000)" fill="#000000" stroke="none">
<path d="M0 5220 l0 -5220 5420 0 5420 0 0 5220 0 5220 -5420 0 -5420 0 0 -5220z"/>
</g>
</g>
  <g id="id14:id14" transform="matrix(1.25,0,0,1.25,0.0,0.0)"><g transform="translate(0.000000,417.600000) scale(0.040000,-0.040000)" fill="#000000" stroke="none">
<path d="M0 5220 l0 -5220 5420 0 5420 0 0 5220 0 5220 -5420 0 -5420 0 0 -5220z"/>
</g>
</g>
  <g id="id15:id15" transform="matrix(1.25,0,0,1.25,0.0,0.0)"><g transform="translate(0.000000,417.600000) scale(0.040000,-0.040000)" fill="#000000" stroke="none">
<path d="M0 5220 l0 -5220 5420 0 5420 0 0 5220 0 5220 -5420 0 -5420 0 0 -5220z"/>
</g>
</g>
</svg>
